<svg xmlns="http://www.w3.org/2000/svg" width="30" height="28.289" viewBox="0 0 30 28.289"><g opacity="0.6"><path d="M27.859,45.3c-.121-1.1-.138-3,.709-3.636a.348.348,0,0,0,.04-.043c.693-.268,1.172-.643.8-1.148L19.188,36.758,2.646,39.536S.752,39.863.921,43.418a5.121,5.121,0,0,0,1.034,3.353L.6,47.265c-.377.505.1.881.8,1.148a.3.3,0,0,0,.04.043c.847.638.83,2.535.708,3.637C-.9,53.137.191,53.477.191,53.477l.667.195A4.422,4.422,0,0,0,.01,57c.169,3.554,1.725,3.8,1.725,3.8l10.825,4.25L28.9,60.267s1.092-.34-1.95-1.384c-.122-1.1-.139-3,.709-3.637a.274.274,0,0,0,.04-.043c.693-.268,1.171-.643.8-1.148l-.71-.259c.474-.345,1.185-1.247,1.3-3.589a4.785,4.785,0,0,0-.674-3.11l1.4-.41S30.9,46.347,27.859,45.3Zm-13.666-.046,2.748-.682,9.285-2.305,1.383-.344a6.894,6.894,0,0,0-.35,3.174c.016.194.034.372.052.507l-1.514.455L14.078,49.586Zm-11.8,3.459,1.383.344,8.917,2.214.779.193h0l2.336.58.115,4.327L3.876,52.756,2.689,52.4c.017-.135.036-.313.053-.508A6.9,6.9,0,0,0,2.391,48.718Zm-.537-5.47a3.248,3.248,0,0,1,.4-1.977A.673.673,0,0,1,2.795,41a.758.758,0,0,1,.136.013l7.127,2.807,3.556,1.4L13.5,49.58,3.521,46.2l-.526-.178a.268.268,0,0,0-.066-.012C2.888,46.007,1.9,45.9,1.853,43.247ZM12.586,63.16,2.084,59.6a.264.264,0,0,0-.066-.013c-.042,0-1.029-.113-1.076-2.763a3.252,3.252,0,0,1,.4-1.978.674.674,0,0,1,.537-.268.789.789,0,0,1,.136.012h0L12.7,58.8Zm13.761-4.478c.017.2.035.372.053.508L13.166,63.166l.116-4.327,2.829-.7.418.122,1.566-.615,7.219-1.792,1.384-.344A6.887,6.887,0,0,0,26.347,58.681Zm.729-5.881a.214.214,0,0,0-.071.013l-1,.338L16.5,56.37l-.116-4.357,3.118-1.229,7.55-2.974a.691.691,0,0,1,.688.25,3.254,3.254,0,0,1,.4,1.977C28.1,52.687,27.112,52.8,27.076,52.8Z" transform="translate(0.001 -36.758)" fill="#202020"/></g></svg>