<svg xmlns="http://www.w3.org/2000/svg" width="33" height="23.672" viewBox="0 0 33 23.672"><g opacity="0.6"><g transform="translate(11.341 3.74)"><g transform="translate(0 0)"><path d="M188.248,149.6a5.563,5.563,0,1,0,5.159,5.548A5.37,5.37,0,0,0,188.248,149.6Zm0,8.63a3.09,3.09,0,1,1,2.866-3.082A2.983,2.983,0,0,1,188.248,158.233Z" transform="translate(-183.089 -149.603)" fill="#202020"/></g></g><g transform="translate(8.819 12.329)"><g transform="translate(0 0)"><path d="M155.124,262.481c-4.235,0-7.68,3.706-7.68,8.26v1.849a1.149,1.149,0,1,0,2.293,0v-1.849a5.4,5.4,0,1,1,10.776,0v1.849a1.149,1.149,0,1,0,2.293,0v-1.849C162.8,266.187,159.359,262.481,155.124,262.481Z" transform="translate(-147.443 -262.481)" fill="#202020"/></g></g><g transform="translate(20.161)"><g transform="translate(0 0)"><path d="M335.691,100.456A5.563,5.563,0,1,0,340.849,106,5.37,5.37,0,0,0,335.691,100.456Zm0,8.63A3.09,3.09,0,1,1,338.556,106,2.983,2.983,0,0,1,335.691,109.086Z" transform="translate(-330.532 -100.456)" fill="#202020"/></g></g><g transform="translate(17.854 8.589)"><g transform="translate(0 0)"><path d="M305.073,213.333a7.821,7.821,0,0,0-7.453,6.228c-.157.659,1.234-.169,1.847,0s.216,1.273.373.613a5.493,5.493,0,0,1,5.233-4.375,5.609,5.609,0,0,1,5.388,5.795v1.849a1.149,1.149,0,1,0,2.293,0v-1.849C312.753,217.039,309.308,213.333,305.073,213.333Z" transform="translate(-297.607 -213.333)" fill="#202020"/></g></g><g transform="translate(2.522)"><g transform="translate(0 0)"><path d="M40.8,100.456a5.563,5.563,0,0,0,0,11.1,5.563,5.563,0,0,0,0-11.1Zm0,8.63A3.09,3.09,0,1,1,43.67,106,2.983,2.983,0,0,1,40.8,109.086Z" transform="translate(-35.646 -100.456)" fill="#202020"/></g></g><g transform="translate(0 8.589)"><g transform="translate(0 0)"><path d="M15.1,219.521a7.776,7.776,0,0,0-7.415-6.187c-4.235,0-7.681,3.706-7.681,8.26v1.849a1.192,1.192,0,0,0,1.146,1.233,1.192,1.192,0,0,0,1.146-1.233v-1.849A5.609,5.609,0,0,1,7.681,215.8a5.447,5.447,0,0,1,5.194,4.334c.157.659.843-.445,1.459-.613S15.253,220.18,15.1,219.521Z" transform="translate(0 -213.334)" fill="#202020"/></g></g></g></svg>