<svg xmlns="http://www.w3.org/2000/svg" width="25.696" height="25.696" viewBox="0 0 25.696 25.696"><g opacity="0.6"><path d="M9.9,8.566H1.874A1.876,1.876,0,0,1,0,6.692V1.874A1.876,1.876,0,0,1,1.874,0H9.9a1.876,1.876,0,0,1,1.874,1.874V6.692A1.876,1.876,0,0,1,9.9,8.566ZM1.874,1.606a.268.268,0,0,0-.268.268V6.692a.268.268,0,0,0,.268.268H9.9a.268.268,0,0,0,.268-.268V1.874A.268.268,0,0,0,9.9,1.606Zm0,0" transform="translate(0 0)" fill="#202020"/><path d="M9.9,228.322H1.874A1.876,1.876,0,0,1,0,226.448V215.206a1.876,1.876,0,0,1,1.874-1.874H9.9a1.876,1.876,0,0,1,1.874,1.874v11.242A1.876,1.876,0,0,1,9.9,228.322Zm-8.03-13.384a.268.268,0,0,0-.268.268v11.242a.268.268,0,0,0,.268.268H9.9a.268.268,0,0,0,.268-.268V215.206a.268.268,0,0,0-.268-.268Zm0,0" transform="translate(0 -202.625)" fill="#202020"/><path d="M287.236,349.9h-8.03a1.876,1.876,0,0,1-1.874-1.874v-4.818a1.876,1.876,0,0,1,1.874-1.874h8.03a1.876,1.876,0,0,1,1.874,1.874v4.818A1.876,1.876,0,0,1,287.236,349.9Zm-8.03-6.959a.268.268,0,0,0-.268.268v4.818a.268.268,0,0,0,.268.268h8.03a.268.268,0,0,0,.268-.268v-4.818a.268.268,0,0,0-.268-.268Zm0,0" transform="translate(-263.413 -324.201)" fill="#202020"/><path d="M287.236,14.99h-8.03a1.876,1.876,0,0,1-1.874-1.874V1.874A1.876,1.876,0,0,1,279.206,0h8.03a1.876,1.876,0,0,1,1.874,1.874V13.116A1.876,1.876,0,0,1,287.236,14.99Zm-8.03-13.384a.268.268,0,0,0-.268.268V13.116a.268.268,0,0,0,.268.268h8.03a.268.268,0,0,0,.268-.268V1.874a.268.268,0,0,0-.268-.268Zm0,0" transform="translate(-263.413 0)" fill="#202020"/></g></svg>