<svg xmlns="http://www.w3.org/2000/svg" width="30.971" height="30.9" viewBox="0 0 30.971 30.9"><g transform="translate(0 0.122)" opacity="0.6"><path d="M255.026.3a.7.7,0,0,0-.5-.205.729.729,0,0,0-.5.205L243.893,10.43l-.028.029-.014.014c-.014.021-.035.043-.049.064s-.007.007-.007.014-.021.035-.035.056-.007.014-.014.021-.014.035-.021.057-.007.007-.007.014l-1.8,5.439a.7.7,0,0,0,.17.721.712.712,0,0,0,.5.205.843.843,0,0,0,.227-.035l5.425-1.81c.007,0,.007,0,.014-.007a.251.251,0,0,0,.064-.028.025.025,0,0,0,.014-.007c.021-.014.049-.028.071-.043s.042-.035.064-.049.014-.007.014-.014.021-.014.029-.028L258.64,4.906a.7.7,0,0,0,0-1ZM244.7,12.241l2,2-3,1Zm3.31,1.308-2.617-2.617L254.523,1.8l2.617,2.617Zm0,0" transform="translate(-227.876 -0.219)" fill="#202020"/><path d="M25.192,92.871a.709.709,0,0,0-.707.707V106.8a2.128,2.128,0,0,1-2.122,2.122H3.536A2.128,2.128,0,0,1,1.414,106.8V87.97a2.128,2.128,0,0,1,2.122-2.122H16.755a.707.707,0,0,0,0-1.415H3.536A3.538,3.538,0,0,0,0,87.97V106.8a3.538,3.538,0,0,0,3.536,3.536H22.363A3.537,3.537,0,0,0,25.9,106.8V93.579a.709.709,0,0,0-.707-.707Zm0,0" transform="translate(0 -79.556)" fill="#202020"/></g></svg>