<svg xmlns="http://www.w3.org/2000/svg" width="1920" height="1080"><defs><clipPath id="c"><path d="M0 0h1920v1097H0z"/></clipPath><clipPath id="a"><path d="M0 0h1920v1080H0z"/></clipPath><linearGradient id="b" y1="1" x2="1" gradientUnits="objectBoundingBox"><stop offset="0" stop-color="#0067c1"/><stop offset="1" stop-color="#006ecf"/></linearGradient></defs><g clip-path="url(#a)"><path fill="#fff" d="M0 0h1920v1080H0z"/><path d="M0 0h1920v1097H0z" fill="url(#b)"/><g clip-path="url(#c)"><path d="M504.02-418.48c-25.84-4.37-51.8-8.03-77.73-11.8-179.2-26.03-178.73-177-284.77-169.54-70.3 4.96-125.31 117.84-175.28 53.96-110.94-141.86-236.26-53.92-271.39 62.16-17.91 59.2-8.98 96.09-11.6 178.67-4 126.39-153.85 92.2-273.7 165.72-113.6 69.71-116.32 193.54-33.5 256.42 129.35 98.22 273.26-26.25 385.18 72.95 200.08 177.35 226.24 59.99 382.7-12.37 135.9-62.83 227.06 15.25 352.8 12.14 102.18 3.31 180.33-33.34 239.5-110.01 151.68-196.5 8-457.64-232.21-498.3z" fill="#0556bd" opacity=".49"/><path d="M763.47 1664.2c340.84 9.62 413.65-125.86 651.4-78.78s194.27 174.38 375.9 253.02 193.37-79.79 383.32 92.48 200.38 211.5 454.6 101.3c130.66-56.62 204.03-171.54 297.4-309.3 194.92-287.6 448.46-255.4 706.96-536.48 220.5-239.77 238.91-520.18 74.86-673.88-188.74-176.83-436.98-112.52-755.4-115.63-280.48-2.73-300.68-272.3-509.62-477.6-144.22-141.71-350.81-121.76-552.84-13.5-264.1 141.52-393.46 327.34-554.54 545.3-177.94 240.8-355.66 291.31-517.23 367.28-499.34 234.82-422.28 835.41-54.8 845.8z" fill="#0260c3"/></g><g opacity=".34" style="mix-blend-mode:overlay;isolation:isolate" fill="#fff"><path d="M78.52 253.65a2.3 2.3 0 102.3-2.3 2.3 2.3 0 00-2.3 2.3zM78.52 269.27a2.3 2.3 0 102.3-2.3 2.3 2.3 0 00-2.3 2.3zM78.52 284.9a2.3 2.3 0 102.3-2.3 2.3 2.3 0 00-2.3 2.3zM78.52 300.52a2.3 2.3 0 102.3-2.3 2.3 2.3 0 00-2.3 2.3zM78.52 316.14a2.3 2.3 0 102.3-2.3 2.3 2.3 0 00-2.3 2.3zM78.52 331.76a2.3 2.3 0 102.3-2.3 2.3 2.3 0 00-2.3 2.3zM78.52 347.39a2.3 2.3 0 102.3-2.3 2.3 2.3 0 00-2.3 2.3zM78.52 363a2.3 2.3 0 102.3-2.3 2.3 2.3 0 00-2.3 2.3zM78.52 378.63a2.3 2.3 0 102.3-2.3 2.3 2.3 0 00-2.3 2.3zM78.52 394.25a2.3 2.3 0 102.3-2.3 2.3 2.3 0 00-2.3 2.3zM78.52 409.88a2.3 2.3 0 102.3-2.3 2.3 2.3 0 00-2.3 2.3zM78.52 425.5a2.3 2.3 0 102.3-2.3 2.3 2.3 0 00-2.3 2.3zM78.52 441.12a2.3 2.3 0 102.3-2.3 2.3 2.3 0 00-2.3 2.3zM78.52 456.75a2.3 2.3 0 102.3-2.3 2.3 2.3 0 00-2.3 2.3zM78.52 472.37a2.3 2.3 0 102.3-2.3 2.3 2.3 0 00-2.3 2.3zM78.52 488a2.3 2.3 0 102.3-2.3 2.3 2.3 0 00-2.3 2.3zM78.52 503.62a2.3 2.3 0 102.3-2.3 2.3 2.3 0 00-2.3 2.3zM78.52 519.24a2.3 2.3 0 102.3-2.3 2.3 2.3 0 00-2.3 2.3zM78.52 534.86a2.3 2.3 0 102.3-2.3 2.3 2.3 0 00-2.3 2.3zM78.52 550.49a2.3 2.3 0 102.3-2.3 2.3 2.3 0 00-2.3 2.3zM78.52 566.1a2.3 2.3 0 102.3-2.3 2.3 2.3 0 00-2.3 2.3zM78.52 581.73a2.3 2.3 0 102.3-2.3 2.3 2.3 0 00-2.3 2.3zM78.52 597.36a2.3 2.3 0 102.3-2.3 2.3 2.3 0 00-2.3 2.3zM78.52 612.98a2.3 2.3 0 102.3-2.3 2.3 2.3 0 00-2.3 2.3zM78.52 628.6a2.3 2.3 0 102.3-2.3 2.3 2.3 0 00-2.3 2.3zM78.52 644.23a2.3 2.3 0 102.3-2.3 2.3 2.3 0 00-2.3 2.3zM78.52 659.85a2.3 2.3 0 102.3-2.3 2.3 2.3 0 00-2.3 2.3zM78.52 675.47a2.3 2.3 0 102.3-2.3 2.3 2.3 0 00-2.3 2.3zM78.52 691.1a2.3 2.3 0 102.3-2.3 2.3 2.3 0 00-2.3 2.3zM78.52 706.72a2.3 2.3 0 102.3-2.3 2.3 2.3 0 00-2.3 2.3zM78.52 722.34a2.3 2.3 0 102.3-2.3 2.3 2.3 0 00-2.3 2.3zM78.52 737.96a2.3 2.3 0 102.3-2.3 2.3 2.3 0 00-2.3 2.3zM78.52 753.59a2.3 2.3 0 102.3-2.3 2.3 2.3 0 00-2.3 2.3zM78.52 769.21a2.3 2.3 0 102.3-2.3 2.3 2.3 0 00-2.3 2.3zM78.52 784.83a2.3 2.3 0 102.3-2.3 2.3 2.3 0 00-2.3 2.3zM78.52 800.46a2.3 2.3 0 102.3-2.3 2.3 2.3 0 00-2.3 2.3zM78.52 816.08a2.3 2.3 0 102.3-2.3 2.3 2.3 0 00-2.3 2.3zM78.52 831.7a2.3 2.3 0 102.3-2.3 2.3 2.3 0 00-2.3 2.3zM78.52 847.33a2.3 2.3 0 102.3-2.3 2.3 2.3 0 00-2.3 2.3zM78.52 862.95a2.3 2.3 0 102.3-2.3 2.3 2.3 0 00-2.3 2.3zM78.52 878.57a2.3 2.3 0 102.3-2.3 2.3 2.3 0 00-2.3 2.3zM78.52 894.2a2.3 2.3 0 102.3-2.3 2.3 2.3 0 00-2.3 2.3zM78.52 909.82a2.3 2.3 0 102.3-2.3 2.3 2.3 0 00-2.3 2.3zM62.9 253.65a2.3 2.3 0 102.3-2.3 2.3 2.3 0 00-2.3 2.3zM62.9 269.27a2.3 2.3 0 102.3-2.3 2.3 2.3 0 00-2.3 2.3zM62.9 284.9a2.3 2.3 0 102.3-2.3 2.3 2.3 0 00-2.3 2.3zM62.9 300.52a2.3 2.3 0 102.3-2.3 2.3 2.3 0 00-2.3 2.3zM62.9 316.14a2.3 2.3 0 102.3-2.3 2.3 2.3 0 00-2.3 2.3zM62.9 331.76a2.3 2.3 0 102.3-2.3 2.3 2.3 0 00-2.3 2.3zM62.9 347.39a2.3 2.3 0 102.3-2.3 2.3 2.3 0 00-2.3 2.3zM62.9 363a2.3 2.3 0 102.3-2.3 2.3 2.3 0 00-2.3 2.3zM62.9 378.63a2.3 2.3 0 102.3-2.3 2.3 2.3 0 00-2.3 2.3zM62.9 394.25a2.3 2.3 0 102.3-2.3 2.3 2.3 0 00-2.3 2.3zM62.9 409.88a2.3 2.3 0 102.3-2.3 2.3 2.3 0 00-2.3 2.3zM62.9 425.5a2.3 2.3 0 102.3-2.3 2.3 2.3 0 00-2.3 2.3zM62.9 441.12a2.3 2.3 0 102.3-2.3 2.3 2.3 0 00-2.3 2.3zM62.9 456.75a2.3 2.3 0 102.3-2.3 2.3 2.3 0 00-2.3 2.3zM62.9 472.37a2.3 2.3 0 102.3-2.3 2.3 2.3 0 00-2.3 2.3zM62.9 488a2.3 2.3 0 102.3-2.3 2.3 2.3 0 00-2.3 2.3zM62.9 503.62a2.3 2.3 0 102.3-2.3 2.3 2.3 0 00-2.3 2.3zM62.9 519.24a2.3 2.3 0 102.3-2.3 2.3 2.3 0 00-2.3 2.3zM62.9 534.86a2.3 2.3 0 102.3-2.3 2.3 2.3 0 00-2.3 2.3zM62.9 550.49a2.3 2.3 0 102.3-2.3 2.3 2.3 0 00-2.3 2.3zM62.9 566.1a2.3 2.3 0 102.3-2.3 2.3 2.3 0 00-2.3 2.3zM62.9 581.73a2.3 2.3 0 102.3-2.3 2.3 2.3 0 00-2.3 2.3zM62.9 597.36a2.3 2.3 0 102.3-2.3 2.3 2.3 0 00-2.3 2.3zM62.9 612.98a2.3 2.3 0 102.3-2.3 2.3 2.3 0 00-2.3 2.3zM62.9 628.6a2.3 2.3 0 102.3-2.3 2.3 2.3 0 00-2.3 2.3zM62.9 644.23a2.3 2.3 0 102.3-2.3 2.3 2.3 0 00-2.3 2.3zM62.9 659.85a2.3 2.3 0 102.3-2.3 2.3 2.3 0 00-2.3 2.3zM62.9 675.47a2.3 2.3 0 102.3-2.3 2.3 2.3 0 00-2.3 2.3zM62.9 691.1a2.3 2.3 0 102.3-2.3 2.3 2.3 0 00-2.3 2.3zM62.9 706.72a2.3 2.3 0 102.3-2.3 2.3 2.3 0 00-2.3 2.3zM62.9 722.34a2.3 2.3 0 102.3-2.3 2.3 2.3 0 00-2.3 2.3zM62.9 737.96a2.3 2.3 0 102.3-2.3 2.3 2.3 0 00-2.3 2.3zM62.9 753.59a2.3 2.3 0 102.3-2.3 2.3 2.3 0 00-2.3 2.3zM62.9 769.21a2.3 2.3 0 102.3-2.3 2.3 2.3 0 00-2.3 2.3zM62.9 784.83a2.3 2.3 0 102.3-2.3 2.3 2.3 0 00-2.3 2.3zM62.9 800.46a2.3 2.3 0 102.3-2.3 2.3 2.3 0 00-2.3 2.3zM62.9 816.08a2.3 2.3 0 102.3-2.3 2.3 2.3 0 00-2.3 2.3zM62.9 831.7a2.3 2.3 0 102.3-2.3 2.3 2.3 0 00-2.3 2.3zM62.9 847.33a2.3 2.3 0 102.3-2.3 2.3 2.3 0 00-2.3 2.3zM62.9 862.95a2.3 2.3 0 102.3-2.3 2.3 2.3 0 00-2.3 2.3zM62.9 878.57a2.3 2.3 0 102.3-2.3 2.3 2.3 0 00-2.3 2.3zM62.9 894.2a2.3 2.3 0 102.3-2.3 2.3 2.3 0 00-2.3 2.3zM62.9 909.82a2.3 2.3 0 102.3-2.3 2.3 2.3 0 00-2.3 2.3zM47.27 253.65a2.3 2.3 0 102.3-2.3 2.3 2.3 0 00-2.3 2.3zM47.27 269.27a2.3 2.3 0 102.3-2.3 2.3 2.3 0 00-2.3 2.3zM47.27 284.9a2.3 2.3 0 102.3-2.3 2.3 2.3 0 00-2.3 2.3zM47.27 300.52a2.3 2.3 0 102.3-2.3 2.3 2.3 0 00-2.3 2.3zM47.27 316.14a2.3 2.3 0 102.3-2.3 2.3 2.3 0 00-2.3 2.3zM47.27 331.76a2.3 2.3 0 102.3-2.3 2.3 2.3 0 00-2.3 2.3zM47.27 347.39a2.3 2.3 0 102.3-2.3 2.3 2.3 0 00-2.3 2.3zM47.27 363a2.3 2.3 0 102.3-2.3 2.3 2.3 0 00-2.3 2.3zM47.27 378.63a2.3 2.3 0 102.3-2.3 2.3 2.3 0 00-2.3 2.3zM47.27 394.25a2.3 2.3 0 102.3-2.3 2.3 2.3 0 00-2.3 2.3zM47.27 409.88a2.3 2.3 0 102.3-2.3 2.3 2.3 0 00-2.3 2.3zM47.27 425.5a2.3 2.3 0 102.3-2.3 2.3 2.3 0 00-2.3 2.3zM47.27 441.12a2.3 2.3 0 102.3-2.3 2.3 2.3 0 00-2.3 2.3zM47.27 456.75a2.3 2.3 0 102.3-2.3 2.3 2.3 0 00-2.3 2.3zM47.27 472.37a2.3 2.3 0 102.3-2.3 2.3 2.3 0 00-2.3 2.3zM47.27 488a2.3 2.3 0 102.3-2.3 2.3 2.3 0 00-2.3 2.3zM47.27 503.62a2.3 2.3 0 102.3-2.3 2.3 2.3 0 00-2.3 2.3zM47.27 519.24a2.3 2.3 0 102.3-2.3 2.3 2.3 0 00-2.3 2.3zM47.27 534.86a2.3 2.3 0 102.3-2.3 2.3 2.3 0 00-2.3 2.3zM47.27 550.49a2.3 2.3 0 102.3-2.3 2.3 2.3 0 00-2.3 2.3zM47.27 566.1a2.3 2.3 0 102.3-2.3 2.3 2.3 0 00-2.3 2.3zM47.27 581.73a2.3 2.3 0 102.3-2.3 2.3 2.3 0 00-2.3 2.3zM47.27 597.36a2.3 2.3 0 102.3-2.3 2.3 2.3 0 00-2.3 2.3zM47.27 612.98a2.3 2.3 0 102.3-2.3 2.3 2.3 0 00-2.3 2.3zM47.27 628.6a2.3 2.3 0 102.3-2.3 2.3 2.3 0 00-2.3 2.3zM47.27 644.23a2.3 2.3 0 102.3-2.3 2.3 2.3 0 00-2.3 2.3zM47.27 659.85a2.3 2.3 0 102.3-2.3 2.3 2.3 0 00-2.3 2.3zM47.27 675.47a2.3 2.3 0 102.3-2.3 2.3 2.3 0 00-2.3 2.3zM47.27 691.1a2.3 2.3 0 102.3-2.3 2.3 2.3 0 00-2.3 2.3zM47.27 706.72a2.3 2.3 0 102.3-2.3 2.3 2.3 0 00-2.3 2.3zM47.27 722.34a2.3 2.3 0 102.3-2.3 2.3 2.3 0 00-2.3 2.3zM47.27 737.96a2.3 2.3 0 102.3-2.3 2.3 2.3 0 00-2.3 2.3zM47.27 753.59a2.3 2.3 0 102.3-2.3 2.3 2.3 0 00-2.3 2.3zM47.27 769.21a2.3 2.3 0 102.3-2.3 2.3 2.3 0 00-2.3 2.3zM47.27 784.83a2.3 2.3 0 102.3-2.3 2.3 2.3 0 00-2.3 2.3zM47.27 800.46a2.3 2.3 0 102.3-2.3 2.3 2.3 0 00-2.3 2.3zM47.27 816.08a2.3 2.3 0 102.3-2.3 2.3 2.3 0 00-2.3 2.3zM47.27 831.7a2.3 2.3 0 102.3-2.3 2.3 2.3 0 00-2.3 2.3zM47.27 847.33a2.3 2.3 0 102.3-2.3 2.3 2.3 0 00-2.3 2.3zM47.27 862.95a2.3 2.3 0 102.3-2.3 2.3 2.3 0 00-2.3 2.3zM47.27 878.57a2.3 2.3 0 102.3-2.3 2.3 2.3 0 00-2.3 2.3zM47.27 894.2a2.3 2.3 0 102.3-2.3 2.3 2.3 0 00-2.3 2.3zM47.27 909.82a2.3 2.3 0 102.3-2.3 2.3 2.3 0 00-2.3 2.3zM31.65 253.65a2.3 2.3 0 102.3-2.3 2.3 2.3 0 00-2.3 2.3zM31.65 269.27a2.3 2.3 0 102.3-2.3 2.3 2.3 0 00-2.3 2.3zM31.65 284.9a2.3 2.3 0 102.3-2.3 2.3 2.3 0 00-2.3 2.3zM31.65 300.52a2.3 2.3 0 102.3-2.3 2.3 2.3 0 00-2.3 2.3zM31.65 316.14a2.3 2.3 0 102.3-2.3 2.3 2.3 0 00-2.3 2.3zM31.65 331.76a2.3 2.3 0 102.3-2.3 2.3 2.3 0 00-2.3 2.3zM31.65 347.39a2.3 2.3 0 102.3-2.3 2.3 2.3 0 00-2.3 2.3zM31.65 363a2.3 2.3 0 102.3-2.3 2.3 2.3 0 00-2.3 2.3zM31.65 378.63a2.3 2.3 0 102.3-2.3 2.3 2.3 0 00-2.3 2.3zM31.65 394.25a2.3 2.3 0 102.3-2.3 2.3 2.3 0 00-2.3 2.3zM31.65 409.88a2.3 2.3 0 102.3-2.3 2.3 2.3 0 00-2.3 2.3zM31.65 425.5a2.3 2.3 0 102.3-2.3 2.3 2.3 0 00-2.3 2.3zM31.65 441.12a2.3 2.3 0 102.3-2.3 2.3 2.3 0 00-2.3 2.3zM31.65 456.75a2.3 2.3 0 102.3-2.3 2.3 2.3 0 00-2.3 2.3zM31.65 472.37a2.3 2.3 0 102.3-2.3 2.3 2.3 0 00-2.3 2.3zM31.65 488a2.3 2.3 0 102.3-2.3 2.3 2.3 0 00-2.3 2.3zM31.65 503.62a2.3 2.3 0 102.3-2.3 2.3 2.3 0 00-2.3 2.3zM31.65 519.24a2.3 2.3 0 102.3-2.3 2.3 2.3 0 00-2.3 2.3zM31.65 534.86a2.3 2.3 0 102.3-2.3 2.3 2.3 0 00-2.3 2.3zM31.65 550.49a2.3 2.3 0 102.3-2.3 2.3 2.3 0 00-2.3 2.3zM31.65 566.1a2.3 2.3 0 102.3-2.3 2.3 2.3 0 00-2.3 2.3zM31.65 581.73a2.3 2.3 0 102.3-2.3 2.3 2.3 0 00-2.3 2.3zM31.65 597.36a2.3 2.3 0 102.3-2.3 2.3 2.3 0 00-2.3 2.3zM31.65 612.98a2.3 2.3 0 102.3-2.3 2.3 2.3 0 00-2.3 2.3zM31.65 628.6a2.3 2.3 0 102.3-2.3 2.3 2.3 0 00-2.3 2.3zM31.65 644.23a2.3 2.3 0 102.3-2.3 2.3 2.3 0 00-2.3 2.3zM31.65 659.85a2.3 2.3 0 102.3-2.3 2.3 2.3 0 00-2.3 2.3zM31.65 675.47a2.3 2.3 0 102.3-2.3 2.3 2.3 0 00-2.3 2.3zM31.65 691.1a2.3 2.3 0 102.3-2.3 2.3 2.3 0 00-2.3 2.3zM31.65 706.72a2.3 2.3 0 102.3-2.3 2.3 2.3 0 00-2.3 2.3zM31.65 722.34a2.3 2.3 0 102.3-2.3 2.3 2.3 0 00-2.3 2.3zM31.65 737.96a2.3 2.3 0 102.3-2.3 2.3 2.3 0 00-2.3 2.3zM31.65 753.59a2.3 2.3 0 102.3-2.3 2.3 2.3 0 00-2.3 2.3zM31.65 769.21a2.3 2.3 0 102.3-2.3 2.3 2.3 0 00-2.3 2.3zM31.65 784.83a2.3 2.3 0 102.3-2.3 2.3 2.3 0 00-2.3 2.3zM31.65 800.46a2.3 2.3 0 102.3-2.3 2.3 2.3 0 00-2.3 2.3zM31.65 816.08a2.3 2.3 0 102.3-2.3 2.3 2.3 0 00-2.3 2.3zM31.65 831.7a2.3 2.3 0 102.3-2.3 2.3 2.3 0 00-2.3 2.3zM31.65 847.33a2.3 2.3 0 102.3-2.3 2.3 2.3 0 00-2.3 2.3zM31.65 862.95a2.3 2.3 0 102.3-2.3 2.3 2.3 0 00-2.3 2.3zM31.65 878.57a2.3 2.3 0 102.3-2.3 2.3 2.3 0 00-2.3 2.3zM31.65 894.2a2.3 2.3 0 102.3-2.3 2.3 2.3 0 00-2.3 2.3zM31.65 909.82a2.3 2.3 0 102.3-2.3 2.3 2.3 0 00-2.3 2.3z"/></g></g></svg>