<svg xmlns="http://www.w3.org/2000/svg" width="24.867" height="24.873" viewBox="0 0 24.867 24.873"><g transform="translate(0 0)"><path d="M26.678,21.872l-3.242-3.98-.115-7.009a.889.889,0,0,0,0-.142C22.3,5.18,19.065,2,14.437,2,9.551,2,5.625,5.553,4.666,10.723a.888.888,0,0,0,0,.16L4.55,17.99l-2.425,3.98a.906.906,0,0,0,.764,1.35h7.995a3.553,3.553,0,0,0,7.107,0h7.995a.892.892,0,0,0,.693-1.448ZM14.437,25.1A1.777,1.777,0,0,1,12.66,23.32h3.553A1.777,1.777,0,0,1,14.437,25.1ZM4.461,21.543l1.777-2.878a.888.888,0,0,0,.124-.444l.08-7.249c.808-4.308,4.015-7.2,7.995-7.2,5,0,6.6,4.442,7.107,7.2l.124,7.249a.888.888,0,0,0,.2.551l2.256,2.772Z" transform="translate(-2.006 -2)" fill="#707070"/></g></svg>