<svg xmlns="http://www.w3.org/2000/svg" width="30" height="29.365" viewBox="0 0 30 29.365"><g transform="translate(0 0)" opacity="0.6"><g transform="translate(0 0)"><path d="M26.786,0H3.214A3.181,3.181,0,0,0,0,3.148v16.78a3.181,3.181,0,0,0,3.214,3.146h3.8L6.435,28.2a1.054,1.054,0,0,0,.947,1.158,1.087,1.087,0,0,0,.834-.263l6.838-6.023H26.786A3.181,3.181,0,0,0,30,19.928V3.148A3.181,3.181,0,0,0,26.786,0Zm1.071,19.926a1.06,1.06,0,0,1-1.071,1.049H14.643a1.085,1.085,0,0,0-.717.27L8.876,25.7l.4-3.554a1.054,1.054,0,0,0-.946-1.159,1.086,1.086,0,0,0-.119-.006h-5a1.06,1.06,0,0,1-1.071-1.049V3.148A1.06,1.06,0,0,1,3.214,2.1H26.786a1.06,1.06,0,0,1,1.071,1.049v16.78Z" transform="translate(0 -0.002)" fill="#202020"/></g></g></svg>