<svg xmlns="http://www.w3.org/2000/svg" width="29.365" height="29.365" viewBox="0 0 29.365 29.365"><g transform="translate(0 0)" opacity="0.6"><path d="M15.6,29.365H13.761a2.706,2.706,0,0,1-2.7-2.7v-.623a11.855,11.855,0,0,1-1.841-.764l-.442.442a2.7,2.7,0,0,1-3.823,0l-1.3-1.3a2.7,2.7,0,0,1,0-3.823l.442-.442a11.856,11.856,0,0,1-.764-1.841H2.7A2.706,2.706,0,0,1,0,15.6V13.761a2.706,2.706,0,0,1,2.7-2.7h.623a11.858,11.858,0,0,1,.764-1.841l-.442-.442a2.7,2.7,0,0,1,0-3.823l1.3-1.3a2.7,2.7,0,0,1,3.823,0l.441.441a11.866,11.866,0,0,1,1.841-.764V2.7a2.706,2.706,0,0,1,2.7-2.7H15.6a2.706,2.706,0,0,1,2.7,2.7v.623a11.855,11.855,0,0,1,1.841.764l.442-.442a2.7,2.7,0,0,1,3.823,0l1.3,1.3a2.7,2.7,0,0,1,0,3.823l-.442.442a11.855,11.855,0,0,1,.764,1.841h.623a2.706,2.706,0,0,1,2.7,2.7V15.6a2.706,2.706,0,0,1-2.7,2.7h-.623a11.858,11.858,0,0,1-.764,1.841l.442.442a2.7,2.7,0,0,1,0,3.823l-1.3,1.3a2.7,2.7,0,0,1-3.823,0l-.441-.441a11.866,11.866,0,0,1-1.841.764v.623A2.706,2.706,0,0,1,15.6,29.365Zm-6.1-5.9a10.141,10.141,0,0,0,2.629,1.091.86.86,0,0,1,.645.833v1.27a.984.984,0,0,0,.983.983H15.6a.984.984,0,0,0,.983-.983v-1.27a.86.86,0,0,1,.645-.833,10.141,10.141,0,0,0,2.629-1.091.86.86,0,0,1,1.046.132l.9.9a.982.982,0,0,0,1.389,0l1.3-1.3a.982.982,0,0,0,0-1.389l-.9-.9a.86.86,0,0,1-.132-1.046,10.139,10.139,0,0,0,1.091-2.629.86.86,0,0,1,.833-.645h1.27a.984.984,0,0,0,.983-.983V13.761a.984.984,0,0,0-.983-.983h-1.27a.86.86,0,0,1-.833-.645A10.141,10.141,0,0,0,23.468,9.5.86.86,0,0,1,23.6,8.458l.9-.9a.982.982,0,0,0,0-1.389l-1.3-1.3a.982.982,0,0,0-1.389,0l-.9.9a.86.86,0,0,1-1.046.132,10.141,10.141,0,0,0-2.629-1.091.86.86,0,0,1-.645-.833V2.7a.984.984,0,0,0-.983-.983H13.761a.984.984,0,0,0-.983.983v1.27a.86.86,0,0,1-.645.833A10.141,10.141,0,0,0,9.5,5.9a.86.86,0,0,1-1.046-.132l-.9-.9a.982.982,0,0,0-1.389,0l-1.3,1.3a.982.982,0,0,0,0,1.389l.9.9A.86.86,0,0,1,5.9,9.5a10.139,10.139,0,0,0-1.091,2.629.86.86,0,0,1-.833.645H2.7a.984.984,0,0,0-.983.983V15.6a.984.984,0,0,0,.983.983h1.27a.86.86,0,0,1,.833.645A10.141,10.141,0,0,0,5.9,19.86a.86.86,0,0,1-.132,1.046l-.9.9a.982.982,0,0,0,0,1.389l1.3,1.3a.982.982,0,0,0,1.389,0l.9-.9A.864.864,0,0,1,9.5,23.467Z" transform="translate(0 0)" fill="#202020"/><path d="M150.191,155.781a5.591,5.591,0,1,1,5.591-5.591A5.6,5.6,0,0,1,150.191,155.781Zm0-9.676a4.085,4.085,0,1,0,4.085,4.085A4.09,4.09,0,0,0,150.191,146.106Z" transform="translate(-135.508 -135.508)" fill="#202020"/></g></svg>